<?xml version="1.0" encoding="iso-8859-1"?>
<!-- Generator: Adobe Illustrator 19.0.0, SVG Export Plug-In . SVG Version: 6.00 Build 0)  -->
<svg version="1.1" id="Capa_1" xmlns="http://www.w3.org/2000/svg" xmlns:xlink="http://www.w3.org/1999/xlink" x="0px" y="0px"
	 viewBox="0 0 512 512" style="enable-background:new 0 0 512 512;" xml:space="preserve">
<g>
	<g>
		<path d="M439.596,77.567c-39.923,0-72.403,32.48-72.403,72.404c0,5.544,4.496,10.039,10.039,10.039
			c5.544,0,10.039-4.496,10.039-10.039c0-28.852,23.473-52.325,52.324-52.325c28.852,0,52.325,23.473,52.325,52.325
			c0,28.851-23.473,52.324-52.325,52.324H10.039C4.495,202.295,0,206.791,0,212.334s4.495,10.039,10.039,10.039h429.557
			c39.924,0,72.404-32.48,72.404-72.403C512,110.048,479.52,77.567,439.596,77.567z"/>
	</g>
</g>
<g>
	<g>
		<path d="M335.902,319.735H55.194c-5.545,0-10.039,4.496-10.039,10.039c0,5.544,4.495,10.039,10.039,10.039h280.708
			c20.552,0,37.27,16.719,37.27,37.27s-16.718,37.27-37.27,37.27c-5.544,0-10.039,4.496-10.039,10.039
			c0,5.544,4.496,10.039,10.039,10.039c31.622,0,57.349-25.727,57.349-57.349S367.524,319.735,335.902,319.735z"/>
	</g>
</g>
<g>
	<g>
		<path d="M418.905,261.828H32.617c-5.545,0-10.039,4.496-10.039,10.039s4.495,10.039,10.039,10.039h386.288
			c40.262,0,73.015,32.754,73.015,73.015c0,5.544,4.496,10.039,10.039,10.039c5.544,0,10.039-4.496,10.039-10.039
			C512,303.589,470.237,261.828,418.905,261.828z"/>
	</g>
</g>
<g>
	<g>
		<path d="M21.328,319.735c-12.92,0-12.941,20.079,0,20.079C34.247,339.814,34.269,319.735,21.328,319.735z"/>
	</g>
</g>
<g>
</g>
<g>
</g>
<g>
</g>
<g>
</g>
<g>
</g>
<g>
</g>
<g>
</g>
<g>
</g>
<g>
</g>
<g>
</g>
<g>
</g>
<g>
</g>
<g>
</g>
<g>
</g>
<g>
</g>
</svg>
